<svg width="128" height="29" viewBox="0 0 128 29" fill="none" xmlns="http://www.w3.org/2000/svg">
<rect width="29" height="29" rx="7.07461" fill="white"/>
<path d="M47.0014 7.62901H44.5618C44.4591 7.62901 44.3735 7.74085 44.3564 7.84408L43.021 14.1239C43.2008 14.7347 43.3806 15.3627 43.4148 15.5175C43.4319 15.5863 43.1238 15.2422 42.6273 14.6487C42.6016 14.6401 42.5845 14.6228 42.5674 14.6056L36.7638 7.77526C36.6525 7.63762 36.43 7.69783 36.3957 7.86988L33.7165 20.8253C33.6908 20.9629 33.7935 21.264 33.9219 21.264H36.3615C36.4642 21.264 36.5498 21.0145 36.5669 20.9199L37.9108 14.4766C37.654 13.7454 37.3287 12.7991 37.2859 12.6099C37.2346 12.3862 40.5558 16.524 42.7471 19.2682L44.1424 20.8597C44.2622 20.9973 44.4762 20.9285 44.5105 20.7564L47.2154 7.9301C47.241 7.80106 47.1383 7.62901 47.0014 7.62901Z" fill="white"/>
<path d="M59.627 7.62901H51.187C51.0843 7.62901 50.9987 7.73224 50.9816 7.83547L48.3024 20.7994C48.2767 20.9371 48.3794 21.2554 48.5078 21.2554H57.0591C57.1618 21.2554 57.2474 21.0059 57.2645 20.9027L57.7695 18.5112C57.7952 18.3735 57.6925 18.2961 57.5641 18.2961H51.9831C51.8461 18.2961 51.7434 18.038 51.7777 17.9004L52.1029 16.3003C51.7948 16.2143 51.5551 16.1025 51.4695 16.0767C51.2384 15.9992 55.039 15.9476 57.1019 15.939C57.1104 15.9218 57.119 15.896 57.1276 15.8788L57.6411 13.6508C57.6668 13.5131 57.5727 13.5561 57.4357 13.5561H53.0274C52.8904 13.5561 52.7877 13.2551 52.822 13.126L53.2414 11.0012C52.7963 10.8722 52.4111 10.7173 52.2998 10.6743C51.9831 10.5711 59.199 10.5453 59.199 10.5453L58.9251 10.5969H59.1391C59.2418 10.5969 59.3274 10.5109 59.3446 10.4162L59.8667 7.9387C59.8667 7.79246 59.764 7.62901 59.627 7.62901Z" fill="white"/>
<path d="M67.7934 7.5174C65.2854 7.5174 62.94 9.29811 62.2809 12.4982L60.5603 20.8083C60.5346 20.9459 60.6374 21.247 60.7658 21.247H63.2053C63.308 21.247 63.3936 20.9975 63.4108 20.8943L63.95 18.391C63.9671 18.2877 64.0613 18.2791 64.1555 18.2791H67.6308C67.7677 18.2791 67.8704 18.2533 67.8362 18.391L67.3312 20.8771C67.3055 21.0147 67.4082 21.2384 67.5366 21.2384H69.9762C70.0789 21.2384 70.1645 20.9889 70.1816 20.8943L71.9278 12.5843C72.604 9.38414 70.2843 7.5174 67.7934 7.5174ZM69.026 12.6531L68.5381 14.7349C68.521 14.8381 68.4268 14.7263 68.3327 14.7263H65.1741C64.8146 15.9134 64.4208 16.1199 64.3267 16.2575C64.1811 16.4726 64.164 16.55 64.6519 14.7521C64.6519 14.7435 64.6519 14.7779 64.6519 14.7693L65.1227 12.6273C65.4223 11.1821 66.3468 10.4078 67.528 10.4078C68.6494 10.4078 69.3085 11.2165 69.026 12.6531Z" fill="white"/>
<path d="M80.8555 7.62901H76.6526C76.5499 7.62901 76.4643 7.74085 76.4472 7.84408L73.768 20.7908C73.7423 20.9285 73.845 21.2468 73.9734 21.2468H76.413C76.5157 21.2468 76.6013 20.9973 76.6184 20.8941L77.1577 18.3907C77.1748 18.2875 77.2689 18.2789 77.3631 18.2789H78.8611H79.2035C79.2891 18.2789 79.3661 18.1843 79.4003 18.2617L80.4618 20.9973C80.496 21.0747 80.573 21.2382 80.6586 21.2382H83.1495C83.3036 21.2382 83.4063 20.9027 83.3464 20.765L82.0111 17.2896C81.9683 17.195 82.0111 17.0402 82.0967 16.9799C83.6374 16.0423 84.7417 14.4508 84.9899 12.7303C85.4436 9.80545 83.2951 7.62901 80.8555 7.62901ZM82.1138 12.6615C81.8484 13.926 80.6158 14.7347 79.3918 14.7347H78.3389C77.9623 15.9218 77.5429 16.2143 77.4487 16.3606C77.3289 16.5412 77.6969 15.182 77.988 14.1067L78.7155 10.7001C78.7327 10.5969 78.8268 10.5797 78.921 10.5797H80.3505C81.5916 10.5883 82.3877 11.3625 82.1138 12.6615Z" fill="white"/>
<path d="M95.1419 7.43144C91.3756 7.43144 87.866 10.4939 87.2412 14.3134C86.6163 18.1502 88.7391 21.161 92.514 21.161C94.6968 21.161 96.6227 20.1545 98.0437 18.5717C98.1207 18.4857 98.1122 18.348 98.0351 18.2706L97.2562 17.5222C97.1706 17.4362 97.0336 17.4448 96.9566 17.5308C95.8524 18.7007 94.3373 19.5352 92.6681 19.5352C89.792 19.5352 88.2683 17.1437 88.8504 14.3048C89.4239 11.4402 92.1459 9.02291 94.8509 9.02291C96.52 9.02291 97.59 9.84875 98.1978 10.6746C98.2662 10.7606 98.3861 10.7864 98.4802 10.7262L99.5673 10.0552C99.67 9.98639 99.7043 9.84875 99.6272 9.74552C98.6942 8.42073 97.0079 7.43144 95.1419 7.43144Z" fill="white"/>
<path d="M113.126 7.62901H111.997C111.894 7.62901 111.808 7.73224 111.791 7.83547L110.045 16.0939C109.574 18.2273 107.357 19.5177 105.739 19.5177C103.642 19.5177 102.529 18.2531 102.983 16.1111L104.704 7.9301C104.729 7.79246 104.627 7.63762 104.498 7.63762H103.368C103.265 7.63762 103.18 7.74085 103.163 7.84408L101.382 16.2573C100.74 19.3198 103.043 21.1435 105.465 21.1435C107.854 21.1435 110.909 19.5263 111.586 16.2745L113.349 7.9387C113.366 7.78386 113.263 7.62901 113.126 7.62901Z" fill="white"/>
<path d="M125.615 7.62901H116.285C116.182 7.62901 116.096 7.73224 116.079 7.83547L115.84 9.04843C115.814 9.18607 115.908 9.40973 116.045 9.40973H119.614C119.751 9.40973 119.854 9.45274 119.82 9.59038L117.483 20.8597C117.457 20.9973 117.56 21.2554 117.688 21.2554H118.818C118.921 21.2554 119.007 21.0059 119.024 20.9027L121.395 9.59038C121.412 9.48715 121.506 9.40973 121.6 9.40973H125.358C125.461 9.40973 125.546 9.25489 125.563 9.16026L125.803 7.97311C125.854 7.82687 125.752 7.62901 125.615 7.62901Z" fill="white"/>
<path d="M18.7356 14.3393C18.7944 14.2933 18.7879 14.1948 18.801 14.1225C18.8271 14.0043 18.9121 13.9189 19.0101 13.8401C19.1017 13.7678 19.2062 13.6955 19.2651 13.597C19.3239 13.4985 19.337 13.3539 19.252 13.2685C19.2062 13.2291 19.1474 13.2094 19.082 13.1963C18.7683 13.1109 18.4611 13.0386 18.1604 12.9072C17.8663 12.7759 17.5656 12.6248 17.2322 12.6051C16.6635 12.5722 16.1275 12.9335 15.8138 13.4131C16.1406 13.3802 16.4413 13.2094 16.755 13.1175C17.0688 13.0255 17.461 13.0255 17.6767 13.2685C17.0949 13.3277 16.6505 13.643 16.1341 13.8598C16.1864 13.886 16.2452 13.8992 16.304 13.9189C16.4936 13.9714 16.6635 13.9583 16.84 13.8795C16.9707 13.8138 17.0949 13.735 17.2322 13.6955C17.3433 13.6627 17.5656 13.6496 17.6309 13.7744V13.7809C17.2387 13.9058 16.8727 14.1028 16.5589 14.3656C16.6962 14.4313 16.8466 14.4641 17.0034 14.4641C17.0688 14.4641 17.1407 14.451 17.1865 14.405C17.2453 14.3525 17.2322 14.2933 17.2061 14.2342C17.2714 14.2211 17.3368 14.2014 17.4022 14.1882C17.4152 14.1882 17.4283 14.1817 17.4414 14.1882C17.4545 14.1948 17.4675 14.2079 17.4741 14.2276C17.5198 14.3327 17.5917 14.4247 17.6702 14.5101C17.4087 14.5627 17.1538 14.6218 16.8988 14.694C16.8662 14.7006 16.8335 14.7203 16.84 14.7532C16.84 14.7729 16.8662 14.786 16.8792 14.7926C17.2649 14.9831 17.7224 15.0094 18.1277 14.8714C18.2062 14.8451 18.2781 14.8123 18.3303 14.7466C18.3826 14.6875 18.4022 14.5889 18.35 14.5232C18.3042 14.4576 18.1996 14.4247 18.1996 14.3525L18.5461 14.3327C18.6049 14.3656 18.6833 14.3787 18.7356 14.3393Z" fill="#242424"/>
<path d="M11.7614 14.6219C12.1471 14.4511 12.1275 13.8139 11.9183 13.5183C11.7745 13.3146 11.4477 13.157 11.1993 13.2555C11.0424 13.3146 10.7548 13.6234 11.0751 13.6759C11.1078 13.6825 11.1404 13.6825 11.1731 13.6825C11.2777 13.6825 11.3562 13.7285 11.4215 13.8008C11.513 13.8927 11.5392 13.9847 11.5 14.057C11.4607 14.1358 11.3823 14.1489 11.245 14.1226C11.1731 14.1095 11.1012 14.0832 11.0359 14.0832C10.9247 14.0767 10.8463 14.1161 10.8136 14.2277C10.8071 14.2475 10.8005 14.2606 10.8005 14.2803C10.7875 14.3394 10.7809 14.4051 10.7875 14.4642C10.794 14.5431 10.8267 14.6219 10.8594 14.6942C11.0555 15.0489 11.3365 15.3051 11.7157 15.4562C11.768 15.4759 11.8202 15.489 11.8725 15.4956C11.9314 15.5022 11.9902 15.489 12.0229 15.4299L11.8856 15.1277C11.8268 15.0752 11.7614 15.0358 11.7091 14.9832C11.683 14.9569 11.6568 14.9306 11.6438 14.9044C11.5915 14.7927 11.598 14.6942 11.7614 14.6219Z" fill="#242424"/>
<path d="M19.8078 14.0634C20.1934 13.8269 20.3568 13.3342 20.3307 12.881C20.3111 12.6379 20.2523 12.408 20.1673 12.1781C20.0888 11.9613 19.9843 11.7511 19.8862 11.5409C19.8797 11.5212 19.8666 11.5014 19.8535 11.4817C19.8405 11.4686 19.8274 11.462 19.8143 11.4555C19.7555 11.4358 19.6705 11.4686 19.6182 11.4883C19.6117 11.4883 19.5006 11.5343 19.5071 11.5474C19.6182 11.8825 19.7293 12.2109 19.8339 12.5459C19.9124 12.7824 19.9908 13.0386 19.9058 13.2685C19.8405 13.4393 19.7032 13.5707 19.6117 13.7284C19.3502 14.1751 19.5332 14.7466 19.7882 15.1933C20.0431 15.64 20.3764 16.0801 20.4157 16.5925C20.4222 16.6845 20.4157 16.7896 20.3438 16.8487C20.2849 16.8947 20.2065 16.9013 20.1281 16.9013C19.7685 16.9078 19.4156 16.9078 19.0561 16.9144C18.9646 16.9144 18.86 16.9144 18.7946 16.8487C18.6966 16.7502 18.6181 16.5794 18.7031 16.4743C18.7881 16.3626 18.9057 16.2706 18.9384 16.1392C18.8404 16.2838 18.6769 16.3692 18.5462 16.4874C18.4155 16.6056 18.4416 16.783 18.5005 16.9472C18.5658 17.1443 18.8077 17.1969 19.0103 17.2429C19.2129 17.2888 19.4483 17.4268 19.4221 17.6304C18.2717 17.6567 17.1801 18.4384 16.7814 19.5223C16.7617 19.1873 16.8467 18.5829 16.8925 18.2479C16.899 18.1888 16.8859 18.1428 16.8663 18.0968L15.3825 17.1049C14.6112 16.6122 13.8922 16.0276 13.2516 15.3641C13.3105 16.1261 13.0686 16.875 12.8921 17.6173C12.7156 18.3596 12.611 19.1742 12.9313 19.8639C13.1863 20.4157 13.6765 20.8099 14.1733 21.1515C14.8792 21.631 15.6309 22.0383 16.4218 22.3668C17.1474 22.6624 17.9318 22.8791 18.7358 22.8923C19.5921 22.912 20.0039 22.2551 20.0039 22.2551C20.1411 21.8018 20.1607 21.3091 20.0692 20.8493C20.0496 20.7376 19.5855 19.5223 19.5136 19.5946C19.762 19.3712 19.8405 18.9837 19.7032 18.6815C20.0692 18.3465 20.2261 17.8078 20.1084 17.3217C20.3764 17.2034 20.6771 17.0458 20.7556 16.7633C20.8275 16.5005 20.6706 16.2312 20.5333 15.9947C20.1934 15.3969 19.945 14.74 19.8078 14.0634Z" fill="#242424"/>
<path d="M23.5205 10.2403C23.1283 10.7067 22.4943 10.9564 21.8929 10.871C22.2917 10.8907 22.6904 10.687 22.9192 10.3586C22.5531 10.641 22.0302 10.917 21.6576 10.641C21.5465 10.5556 21.4681 10.4374 21.3896 10.3192C21.0563 9.78706 20.7164 9.2484 20.383 8.70973C21.0367 8.81484 21.5792 9.41262 21.6184 10.0761C21.6184 10.0498 21.6184 10.0236 21.6184 9.99728C21.6119 9.55715 21.4485 9.12358 21.1609 8.78856C21.5923 9.27467 21.8603 9.91845 21.8864 10.5754C21.9387 9.8002 21.906 8.9922 21.5465 8.30245C21.3439 7.95428 21.0301 7.6521 20.6641 7.48788C20.3438 7.34336 19.9516 7.32365 19.7032 7.04775C19.5986 6.9295 19.5333 6.77841 19.4548 6.64046C19.1541 6.12807 18.6181 5.79962 18.0625 5.59597C17.5069 5.39233 16.9186 5.28066 16.363 5.08358C16.363 5.08358 13.3628 3.52013 9.69578 5.65509C8.6434 6.27916 8.27081 7.73093 8.06164 8.94622C8.01589 9.19584 7.98321 9.44547 7.9113 9.68853C7.8394 9.91845 7.72828 10.1287 7.64331 10.352C7.13346 11.7052 7.63677 13.2096 8.15969 14.5628C8.68261 15.916 9.23168 17.3875 8.80681 18.7736C9.30358 18.2218 9.25129 17.3875 9.21207 16.6452C9.17285 15.9029 9.25129 15.0292 9.86573 14.6219C9.93109 15.2657 10.7678 15.5153 11.0619 16.0868C11.1207 16.1985 11.1534 16.3168 11.2319 16.4153C11.4476 16.6715 11.8528 16.5927 12.1078 16.3627C11.9705 16.4416 11.7613 16.4284 11.6241 16.3299C11.4214 16.1985 11.3103 15.9686 11.173 15.7715C10.8135 15.2788 10.2122 14.9635 10.1141 14.2869C10.0749 14.0307 10.1403 13.7679 10.2514 13.538C10.7874 12.441 11.9509 12.6709 12.4542 13.3541C12.4607 13.3672 12.4673 13.3738 12.4738 13.3869C12.4999 13.4198 12.5196 13.4526 12.5392 13.492C12.5915 13.584 12.6307 13.6891 12.6568 13.7942C12.6634 13.8139 12.6699 13.8402 12.6699 13.8599C12.6764 13.8862 12.683 13.919 12.683 13.9519C12.683 13.9453 12.683 13.9453 12.683 13.9387C12.7222 14.1949 12.7157 14.4314 12.7157 14.4314L12.8791 14.3854C12.9314 14.3723 12.9837 14.3592 13.0359 14.346L13.0882 14.3329C13.1536 14.3132 13.2124 14.3 13.2778 14.2803C13.2778 13.676 13.6961 13.1373 14.206 12.822C14.8858 12.4016 15.7551 12.2505 16.5003 11.9877L17.3958 10.5491C17.5331 10.3257 17.3893 10.0236 17.1278 9.99728C16.1539 9.90531 15.1669 9.91188 14.2125 9.66225C13.9837 9.60313 14.1145 9.25497 14.3432 9.31409C15.4087 9.58999 16.5134 9.55058 17.5919 9.68196C18.3632 9.8856 19.0299 10.4374 19.7032 10.8447C20.3634 11.2454 21.2981 11.7972 22.089 11.541C22.1217 11.5279 22.1479 11.5082 22.1675 11.4885C22.4355 11.449 22.6904 11.3308 22.8538 11.1075C22.5531 11.298 22.1479 11.298 21.8472 11.1009C22.5139 11.1797 23.1937 10.825 23.5205 10.2403Z" fill="#242424"/>
</svg>
